<mxfile host="app.diagrams.net" modified="2022-03-19T21:54:36.706Z" agent="5.0 (X11)" etag="dEU5LnzNatwLDVwHObMk" version="17.1.3" type="github">
  <diagram id="hlZW-n_YRmIpcA5hNF0s" name="Page-1">
    <mxGraphModel dx="1422" dy="760" grid="1" gridSize="10" guides="1" tooltips="1" connect="1" arrows="1" fold="1" page="1" pageScale="1" pageWidth="850" pageHeight="1100" math="0" shadow="0">
      <root>
        <mxCell id="0" />
        <mxCell id="1" parent="0" />
        <mxCell id="qWg62JYOaORNnU5g6FTK-3" value="" style="edgeStyle=orthogonalEdgeStyle;rounded=0;orthogonalLoop=1;jettySize=auto;html=1;fontSize=28;fontColor=#1A9C1A;strokeWidth=4;" edge="1" parent="1" source="qWg62JYOaORNnU5g6FTK-1" target="qWg62JYOaORNnU5g6FTK-2">
          <mxGeometry relative="1" as="geometry" />
        </mxCell>
        <mxCell id="qWg62JYOaORNnU5g6FTK-1" value="A" style="ellipse;whiteSpace=wrap;html=1;aspect=fixed;rounded=0;shadow=0;glass=0;sketch=0;fontSize=28;fillColor=#f8cecc;strokeColor=#b85450;" vertex="1" parent="1">
          <mxGeometry x="65" y="200" width="80" height="80" as="geometry" />
        </mxCell>
        <mxCell id="qWg62JYOaORNnU5g6FTK-5" value="" style="edgeStyle=orthogonalEdgeStyle;rounded=0;orthogonalLoop=1;jettySize=auto;html=1;fontSize=28;fontColor=#1A9C1A;strokeWidth=4;" edge="1" parent="1" source="qWg62JYOaORNnU5g6FTK-2" target="qWg62JYOaORNnU5g6FTK-4">
          <mxGeometry relative="1" as="geometry" />
        </mxCell>
        <mxCell id="qWg62JYOaORNnU5g6FTK-2" value="&lt;font color=&quot;#000000&quot;&gt;B&lt;/font&gt;" style="ellipse;whiteSpace=wrap;html=1;aspect=fixed;rounded=0;shadow=0;glass=0;sketch=0;fontSize=28;fontColor=#1A9C1A;gradientColor=none;" vertex="1" parent="1">
          <mxGeometry x="225" y="200" width="80" height="80" as="geometry" />
        </mxCell>
        <mxCell id="qWg62JYOaORNnU5g6FTK-7" value="" style="edgeStyle=orthogonalEdgeStyle;rounded=0;orthogonalLoop=1;jettySize=auto;html=1;fontSize=28;fontColor=#1A9C1A;strokeWidth=4;" edge="1" parent="1" source="qWg62JYOaORNnU5g6FTK-4" target="qWg62JYOaORNnU5g6FTK-6">
          <mxGeometry relative="1" as="geometry" />
        </mxCell>
        <mxCell id="qWg62JYOaORNnU5g6FTK-4" value="&lt;font color=&quot;#010801&quot;&gt;&lt;span style=&quot;background-color: rgb(255 , 255 , 255)&quot;&gt;C&lt;/span&gt;&lt;/font&gt;" style="ellipse;whiteSpace=wrap;html=1;aspect=fixed;rounded=0;shadow=0;glass=0;sketch=0;fontSize=28;fontColor=#1A9C1A;gradientColor=none;" vertex="1" parent="1">
          <mxGeometry x="385" y="200" width="80" height="80" as="geometry" />
        </mxCell>
        <mxCell id="qWg62JYOaORNnU5g6FTK-9" value="" style="edgeStyle=orthogonalEdgeStyle;rounded=0;orthogonalLoop=1;jettySize=auto;html=1;fontSize=28;fontColor=#1A9C1A;strokeWidth=4;" edge="1" parent="1" source="qWg62JYOaORNnU5g6FTK-6" target="qWg62JYOaORNnU5g6FTK-8">
          <mxGeometry relative="1" as="geometry" />
        </mxCell>
        <mxCell id="qWg62JYOaORNnU5g6FTK-6" value="&lt;font color=&quot;#010801&quot;&gt;D&lt;/font&gt;" style="ellipse;whiteSpace=wrap;html=1;aspect=fixed;rounded=0;shadow=0;glass=0;sketch=0;fontSize=28;fontColor=#1A9C1A;gradientColor=none;" vertex="1" parent="1">
          <mxGeometry x="545" y="200" width="80" height="80" as="geometry" />
        </mxCell>
        <mxCell id="qWg62JYOaORNnU5g6FTK-8" value="F" style="ellipse;whiteSpace=wrap;html=1;aspect=fixed;rounded=0;shadow=0;glass=0;sketch=0;fontSize=28;fillColor=#d5e8d4;strokeColor=#82b366;" vertex="1" parent="1">
          <mxGeometry x="705" y="200" width="80" height="80" as="geometry" />
        </mxCell>
      </root>
    </mxGraphModel>
  </diagram>
</mxfile>
